<svg width="350" height="364" viewBox="0 0 350 364" fill="none" xmlns="http://www.w3.org/2000/svg">
<path d="M349.5 298V274V239.894C349.5 206 349.5 176 349.5 143.937V19.8947C320.245 -7.02011 274.606 -5.8499 247.692 23.4053L239.5 31.5968L231.309 23.4053C202.054 -3.50948 156.415 -2.33927 129.501 26.916L19.5008 143.937C-7.41403 173.192 -6.24382 218.83 23.0114 245.745L31.2029 253.937L23.0114 262.128C-3.9034 291.383 -2.73319 337.022 26.522 363.936H129.501C170.347 363.936 188.347 363.936 214.347 363.936H245.351H349.5V348V334C349.5 316 349.5 316 349.5 298Z" fill="#000"/>
</svg>
